<?xml version="1.0" encoding="UTF-8"?>
<!DOCTYPE svg PUBLIC "-//W3C//DTD SVG 1.1//EN" "http://www.w3.org/Graphics/SVG/1.1/DTD/svg11.dtd">
<svg version="1.1" xmlns="http://www.w3.org/2000/svg" xmlns:xlink="http://www.w3.org/1999/xlink" width="24" height="24"  xml:space="preserve" id="addIcon">
    <!-- Generated by PaintCode - http://www.paintcodeapp.com -->
    <path id="addIcon-oval" stroke="none" fill="rgb(0, 0, 0)" d="M 24,12 C 24,18.63 18.63,24 12,24 5.37,24 0,18.63 0,12 0,5.37 5.37,-0 12,-0 18.63,-0 24,5.37 24,12 L 23.78,12 C 23.78,5.49 18.51,0.22 12,0.22 5.49,0.22 0.22,5.49 0.22,12 0.22,18.51 5.49,23.78 12,23.78 18.51,23.78 23.78,18.51 23.78,12 L 24,12 Z M 24,12" />
    <path id="addIcon-bezier" stroke="rgb(0, 0, 0)" stroke-width="4" stroke-miterlimit="10" fill="none" d="M 223,95" />
    <rect id="addIcon-rectangle" stroke="none" fill="rgb(0, 0, 0)" x="11" y="5" width="2" height="14" rx="1" />
    <rect id="addIcon-rectangle2" stroke="none" fill="rgb(0, 0, 0)" x="-1" y="-7" width="2" height="14"  transform="translate(12, 12) rotate(-90)" rx="1" />
</svg>
