<?xml version="1.0" encoding="UTF-8"?>
<!DOCTYPE svg PUBLIC "-//W3C//DTD SVG 1.1//EN" "http://www.w3.org/Graphics/SVG/1.1/DTD/svg11.dtd">
<svg version="1.1" xmlns="http://www.w3.org/2000/svg" xmlns:xlink="http://www.w3.org/1999/xlink" width="24" height="24"  xml:space="preserve" id="amendIcon">
    <!-- Generated by PaintCode - http://www.paintcodeapp.com -->
    <rect id="amendIcon-rectangle" stroke="rgb(0, 0, 0)" stroke-width="1" stroke-miterlimit="10" fill="none" x="1" y="1" width="22" height="22" rx="2" />
    <g id="amendIcon-group2">
        <g id="amendIcon-group">
            <path id="amendIcon-bezier" stroke="none" fill="rgb(0, 0, 0)" d="M 23.36,4.87 L 22.66,5.58 18.49,1.3 19.18,0.59 C 19.95,-0.2 21.2,-0.2 21.97,0.59 L 23.36,2.02 C 24.13,2.8 24.13,4.08 23.36,4.87 Z M 23.36,4.87" />
            <path id="amendIcon-bezier2" stroke="none" fill="rgb(0, 0, 0)" d="M 12.83,13.77 C 12.61,13.99 12.61,14.35 12.83,14.57 13.04,14.79 13.39,14.79 13.61,14.57 L 22.18,5.85 21.4,5.06 12.83,13.77 Z M 12.83,13.77" />
            <path id="amendIcon-bezier3" stroke="none" fill="rgb(0, 0, 0)" d="M 9.66,10.48 C 9.45,10.7 9.45,11.05 9.66,11.27 9.88,11.49 10.23,11.49 10.44,11.27 L 19.01,2.55 18.23,1.76 9.66,10.48 Z M 9.66,10.48" />
            <path id="amendIcon-bezier4" stroke="none" fill="rgb(0, 0, 0)" d="M 19.38,2.96 L 10.89,11.63 C 10.46,12.06 10.46,12.77 10.89,13.21 11.32,13.64 12.01,13.64 12.43,13.2 L 20.92,4.53 19.38,2.96 Z M 19.38,2.96" />
        </g>
        <path id="amendIcon-bezier5" stroke="none" fill="rgb(0, 0, 0)" d="M 12.82,14.69 C 12.58,14.45 12.47,14.14 12.42,13.83 12.32,13.85 12.22,13.86 12.12,13.86 11.59,13.86 11.09,13.65 10.71,13.27 10.34,12.89 10.13,12.39 10.13,11.85 10.13,11.75 10.15,11.65 10.16,11.56 9.84,11.52 9.54,11.37 9.31,11.14 9.29,11.12 9.28,11.08 9.26,11.06 L 8.05,15.97 12.88,14.74 C 12.86,14.73 12.84,14.71 12.82,14.69 Z M 12.82,14.69" />
    </g>
    <path id="amendIcon-bezier6" stroke="rgb(0, 0, 0)" stroke-width="1" stroke-miterlimit="10" fill="none" d="M 3.5,4.5 L 16.5,4.5" />
    <path id="amendIcon-bezier7" stroke="rgb(0, 0, 0)" stroke-width="1" stroke-miterlimit="10" fill="none" d="M 3.5,9.5 L 11.5,9.5" />
    <path id="amendIcon-bezier8" stroke="rgb(0, 0, 0)" stroke-width="1" stroke-miterlimit="10" fill="none" d="M 3.5,14.5 L 11.5,14.5" />
</svg>
