<?xml version="1.0" encoding="UTF-8"?>
<!DOCTYPE svg PUBLIC "-//W3C//DTD SVG 1.1//EN" "http://www.w3.org/Graphics/SVG/1.1/DTD/svg11.dtd">
<svg version="1.1" xmlns="http://www.w3.org/2000/svg" xmlns:xlink="http://www.w3.org/1999/xlink" width="24" height="24"  xml:space="preserve" id="deleteIcon">
    <!-- Generated by PaintCode - http://www.paintcodeapp.com -->
    <path id="deleteIcon-bezier" stroke="none" fill="rgb(0, 0, 0)" d="M 21,7.5 C 21,7.5 21,8.74 21,10.29 21,12.84 21,16.21 21,16.21 21,18.78 21,21.21 21,21.21 21,22.75 19.68,24 18.06,24 L 5.94,24 C 4.32,24 3,22.75 3,21.21 3,21.21 3,18.78 3,16.21 3,16.21 3,12.84 3,10.29 3,8.74 3,7.5 3,7.5 L 21,7.5 21,7.5 Z M 21,7.5" />
    <rect id="deleteIcon-rectangle" stroke="none" fill="rgb(255, 255, 255)" x="11" y="10" width="2" height="12" rx="1" />
    <rect id="deleteIcon-rectangle2" stroke="none" fill="rgb(255, 255, 255)" x="6" y="10" width="2" height="12" rx="1" />
    <rect id="deleteIcon-rectangle3" stroke="none" fill="rgb(255, 255, 255)" x="16" y="10" width="2" height="12" rx="1" />
    <path id="deleteIcon-bezier4" stroke="none" fill="rgb(0, 0, 0)" d="M 16,1.78 C 16,1.78 16,1.9 16,2 L 18.28,2 C 19.78,2 21,3.59 21,5.56 21,5.56 21,5.79 21,6 L 3,6 C 3,5.79 3,5.56 3,5.56 3,3.59 4.22,2 5.72,2 L 16,2 8.5,2 C 8.5,1.9 8.5,1.78 8.5,1.78 8.5,1.48 8.55,1.21 8.63,0.96 8.81,0.39 9.19,-0 9.63,-0 L 14.87,-0 C 15.49,-0 16,0.8 16,1.78 Z M 16,1.78" />
</svg>
