<?xml version="1.0" encoding="UTF-8"?>
<!DOCTYPE svg PUBLIC "-//W3C//DTD SVG 1.1//EN" "http://www.w3.org/Graphics/SVG/1.1/DTD/svg11.dtd">
<svg version="1.1" xmlns="http://www.w3.org/2000/svg" xmlns:xlink="http://www.w3.org/1999/xlink" width="24" height="24"  xml:space="preserve" id="editIcon">
    <!-- Generated by PaintCode - http://www.paintcodeapp.com -->
    <g id="editIcon-group2">
        <g id="editIcon-group">
            <path id="editIcon-bezier" stroke="none" fill="rgb(0, 0, 0)" d="M 23.08,7.18 L 22.05,8.23 15.85,1.92 16.88,0.87 C 18.02,-0.29 19.87,-0.29 21.01,0.87 L 23.08,2.97 C 24.22,4.14 24.22,6.02 23.08,7.18 Z M 23.08,7.18" />
            <path id="editIcon-bezier2" stroke="none" fill="rgb(0, 0, 0)" d="M 7.44,20.32 C 7.12,20.64 7.12,21.17 7.44,21.49 7.76,21.81 8.28,21.81 8.6,21.49 L 21.32,8.63 20.17,7.46 7.44,20.32 Z M 7.44,20.32" />
            <path id="editIcon-bezier3" stroke="none" fill="rgb(0, 0, 0)" d="M 2.74,15.46 C 2.42,15.78 2.42,16.3 2.74,16.63 3.06,16.95 3.58,16.95 3.9,16.63 L 16.62,3.77 15.46,2.6 2.74,15.46 Z M 2.74,15.46" />
            <path id="editIcon-bezier4" stroke="none" fill="rgb(0, 0, 0)" d="M 17.17,4.36 L 4.56,17.15 C 3.93,17.8 3.93,18.84 4.56,19.48 5.2,20.12 6.22,20.13 6.86,19.48 L 19.46,6.69 17.17,4.36 Z M 17.17,4.36" />
        </g>
        <path id="editIcon-bezier5" stroke="none" fill="rgb(0, 0, 0)" d="M 7.22,22.05 C 6.86,21.69 6.69,21.23 6.63,20.76 6.47,20.78 6.32,20.8 6.17,20.8 5.37,20.8 4.62,20.49 4.06,19.92 3.49,19.35 3.18,18.59 3.18,17.78 3.18,17.64 3.2,17.49 3.22,17.35 2.74,17.28 2.3,17.07 1.95,16.72 1.91,16.68 1.9,16.64 1.87,16.6 L 0.05,23.97 7.32,22.13 C 7.29,22.1 7.25,22.08 7.22,22.05 Z M 7.22,22.05" />
    </g>
</svg>
