<?xml version="1.0" encoding="UTF-8"?>
<!DOCTYPE svg PUBLIC "-//W3C//DTD SVG 1.1//EN" "http://www.w3.org/Graphics/SVG/1.1/DTD/svg11.dtd">
<svg version="1.1" xmlns="http://www.w3.org/2000/svg" xmlns:xlink="http://www.w3.org/1999/xlink" width="24" height="24"  xml:space="preserve" id="saveDraftIcon">
    <!-- Generated by PaintCode - http://www.paintcodeapp.com -->
    <rect id="saveDraftIcon-rectangle" stroke="rgb(0, 0, 0)" stroke-width="1" stroke-miterlimit="10" fill="none" x="1" y="1" width="22" height="22" rx="2" />
    <path id="saveDraftIcon-bezier6" stroke="rgb(0, 0, 0)" stroke-width="1" stroke-miterlimit="10" fill="none" d="M 3.5,4.5 L 8.5,4.5" />
    <path id="saveDraftIcon-bezier7" stroke="rgb(0, 0, 0)" stroke-width="1" stroke-miterlimit="10" fill="none" d="M 3.5,9.5 L 8.5,9.5" />
    <path id="saveDraftIcon-bezier8" stroke="rgb(0, 0, 0)" stroke-width="1" stroke-miterlimit="10" fill="none" d="M 3.5,14.5 L 8.5,14.5" />
    <path id="saveDraftIcon-path3005" stroke="none" fill="rgb(0, 0, 0)" d="M 11.5,14.83 L 18.5,14.83 18.5,11.33 11.5,11.33 11.5,14.83 Z M 19.67,14.83 L 20.83,14.83 20.83,6.67 C 20.83,6.58 20.8,6.46 20.74,6.32 20.68,6.17 20.62,6.06 20.56,6 L 18,3.44 C 17.94,3.38 17.83,3.32 17.69,3.26 17.54,3.2 17.42,3.17 17.33,3.17 L 17.33,6.96 C 17.33,7.2 17.25,7.41 17.08,7.58 16.91,7.75 16.7,7.83 16.46,7.83 L 11.21,7.83 C 10.97,7.83 10.76,7.75 10.59,7.58 10.42,7.41 10.33,7.2 10.33,6.96 L 10.33,3.17 9.17,3.17 9.17,14.83 10.33,14.83 10.33,11.04 C 10.33,10.8 10.42,10.59 10.59,10.42 10.76,10.25 10.97,10.17 11.21,10.17 L 18.79,10.17 C 19.03,10.17 19.24,10.25 19.41,10.42 19.58,10.59 19.67,10.8 19.67,11.04 L 19.67,14.83 Z M 16.17,6.38 L 16.17,3.46 C 16.17,3.38 16.14,3.31 16.08,3.25 16.02,3.2 15.95,3.17 15.88,3.17 L 14.12,3.17 C 14.05,3.17 13.98,3.2 13.92,3.25 13.86,3.31 13.83,3.38 13.83,3.46 L 13.83,6.38 C 13.83,6.45 13.86,6.52 13.92,6.58 13.98,6.64 14.05,6.67 14.12,6.67 L 15.88,6.67 C 15.95,6.67 16.02,6.64 16.08,6.58 16.14,6.52 16.17,6.45 16.17,6.38 Z M 22,6.67 L 22,15.12 C 22,15.37 21.91,15.57 21.74,15.74 21.57,15.91 21.37,16 21.12,16 L 8.88,16 C 8.63,16 8.43,15.91 8.26,15.74 8.09,15.57 8,15.37 8,15.12 L 8,2.88 C 8,2.63 8.09,2.43 8.26,2.26 8.43,2.09 8.63,2 8.88,2 L 17.33,2 C 17.58,2 17.84,2.06 18.14,2.18 18.43,2.3 18.66,2.45 18.83,2.62 L 21.38,5.17 C 21.55,5.34 21.7,5.57 21.82,5.86 21.94,6.16 22,6.42 22,6.67 Z M 22,6.67" />
    <path id="saveDraftIcon-bezier" stroke="rgb(0, 0, 0)" stroke-width="1" stroke-miterlimit="10" fill="none" d="M 3.5,18.5 L 14.5,18.5" />
</svg>
