<?xml version="1.0" encoding="UTF-8"?>
<!DOCTYPE svg PUBLIC "-//W3C//DTD SVG 1.1//EN" "http://www.w3.org/Graphics/SVG/1.1/DTD/svg11.dtd">
<svg version="1.1" xmlns="http://www.w3.org/2000/svg" xmlns:xlink="http://www.w3.org/1999/xlink" width="24" height="24"  xml:space="preserve" id="timeIcon">
    <!-- Generated by PaintCode - http://www.paintcodeapp.com -->
    <path id="timeIcon-oval" stroke="none" fill="rgb(170, 170, 170)" d="M 24,12 C 24,18.62 18.63,24 12,24 5.37,24 0,18.62 0,12 0,5.38 5.37,-0 12,-0 18.63,-0 24,5.38 24,12 L 24,12.5 23.49,12.5 23.28,12.5 22.77,12.5 22.77,12 C 22.77,6.04 17.95,1.21 12,1.21 6.05,1.21 1.23,6.04 1.23,12 1.23,17.96 6.05,22.79 12,22.79 17.95,22.79 22.77,17.96 22.77,12 L 22.77,11.5 23.28,11.5 23.49,11.5 24,11.5 24,12 Z M 22.98,12 L 23.49,12 23.49,12.5 23.28,12.5 23.28,12 23.79,12 C 23.79,18.51 18.52,23.79 12,23.79 5.48,23.79 0.21,18.51 0.21,12 0.21,5.49 5.48,0.21 12,0.21 18.52,0.21 23.79,5.49 23.79,12 L 23.28,12 23.28,11.5 23.49,11.5 23.49,12 22.98,12 C 22.98,5.92 18.06,1 12,1 5.94,1 1.02,5.92 1.02,12 1.02,18.08 5.94,23 12,23 18.06,23 22.98,18.08 22.98,12 Z M 22.98,12" />
    <path id="timeIcon-bezier" stroke="rgb(0, 0, 0)" stroke-width="4" stroke-miterlimit="10" fill="none" d="M 223,95" />
    <rect id="timeIcon-rectangle" stroke="none" fill="rgb(170, 170, 170)" x="11" y="5" width="2" height="8" rx="1" />
    <rect id="timeIcon-rectangle2" stroke="none" fill="rgb(170, 170, 170)" x="-1" y="-1" width="2" height="8"  transform="translate(12, 12) rotate(-80)" rx="1" />
</svg>
